<?xml version="1.0" standalone="no"?>
<!DOCTYPE svg PUBLIC "-//W3C//DTD SVG 20010904//EN"
 "http://www.w3.org/TR/2001/REC-SVG-20010904/DTD/svg10.dtd">
<svg version="1.0" xmlns="http://www.w3.org/2000/svg"
 width="512.000000pt" height="512.000000pt" viewBox="0 0 512.000000 512.000000"
 preserveAspectRatio="xMidYMid meet">

<g transform="translate(0.000000,512.000000) scale(0.100000,-0.100000)"
fill="#f96302" stroke="none">
<path d="M2090 4786 c-333 -71 -572 -313 -636 -644 -21 -110 -21 -2732 1
-2872 42 -277 187 -528 407 -704 234 -187 554 -277 843 -236 195 28 403 116
551 234 227 180 376 445 414 739 7 55 10 471 8 1259 -3 1170 -3 1177 -24 1204
-39 53 -71 69 -134 69 -63 0 -95 -16 -134 -69 -21 -27 -21 -35 -26 -1244 -5
-1095 -7 -1223 -22 -1272 -33 -109 -60 -170 -108 -243 -238 -366 -718 -474
-1087 -247 -180 111 -293 264 -361 490 -15 50 -17 180 -20 1425 -2 963 1 1385
9 1423 44 215 250 382 469 382 219 0 425 -168 469 -382 8 -37 11 -409 9 -1225
-3 -1166 -3 -1172 -24 -1199 -39 -53 -71 -69 -134 -69 -63 0 -95 16 -134 69
-21 27 -21 37 -26 1046 -5 1009 -5 1019 -26 1046 -39 53 -71 69 -134 69 -63 0
-95 -16 -134 -69 -21 -27 -21 -35 -24 -1039 -2 -701 1 -1028 9 -1065 44 -214
250 -382 469 -382 219 0 425 167 469 383 8 37 11 413 9 1262 -3 1095 -5 1215
-20 1265 -33 109 -60 170 -108 243 -112 173 -271 287 -480 344 -78 21 -260 26
-340 9z"/>
</g>
</svg>
