<?xml version="1.0" standalone="no"?>
<!DOCTYPE svg PUBLIC "-//W3C//DTD SVG 20010904//EN"
 "http://www.w3.org/TR/2001/REC-SVG-20010904/DTD/svg10.dtd">
<svg version="1.0" xmlns="http://www.w3.org/2000/svg"
 width="512.000000pt" height="512.000000pt" viewBox="0 0 512.000000 512.000000"
 preserveAspectRatio="xMidYMid meet">

<g transform="translate(0.000000,512.000000) scale(0.100000,-0.100000)"
fill="#b2b2b2" stroke="none">
<path d="M1438 4680 c-76 -23 -129 -81 -147 -160 -6 -25 -11 -93 -11 -152 l0
-108 -147 0 c-97 0 -170 -6 -213 -16 -213 -50 -391 -220 -466 -444 -18 -52
-19 -125 -22 -1415 -2 -1213 -1 -1369 13 -1439 41 -200 166 -362 350 -451 139
-67 117 -66 1240 -63 l1010 3 37 22 c20 11 380 316 801 677 708 607 766 659
786 706 l22 50 -3 928 c-3 867 -5 931 -22 982 -74 223 -254 395 -466 444 -43
10 -116 16 -212 16 l-148 0 0 108 c0 59 -5 127 -11 152 -36 157 -218 220 -336
117 -61 -53 -73 -93 -73 -244 l0 -133 -860 0 -860 0 0 133 c0 106 -4 140 -19
172 -42 93 -149 144 -243 115z m2832 -2120 l0 -430 -652 0 c-425 0 -666 -4
-691 -11 -49 -13 -105 -63 -128 -114 -17 -37 -19 -80 -19 -598 l0 -557 -893 2
-893 3 -42 28 c-23 15 -54 46 -69 69 l-28 42 -3 998 -2 998 1710 0 1710 0 0
-430z"/>
</g>
</svg>
