<?xml version="1.0" encoding="UTF-8"?>
<svg id="Layer_1" data-name="Layer 1" xmlns="http://www.w3.org/2000/svg" version="1.1" viewBox="0 0 500 500">
  <defs>
    <style>
      .cls-1 {
        fill: #000;
      }

      .cls-1, .cls-2 {
        stroke-width: 0px;
      }

      .cls-2 {
        fill: #fefefe;
      }
    </style>
  </defs>
  <circle class="cls-1" cx="250" cy="250" r="250"/>
  <path class="cls-2" d="M230.66,179.18c0-23.9-.07-47.81.04-71.71.04-8.35,5.67-15.28,13.34-17.07,8-1.88,16,1.63,19.97,8.65,2.01,3.55,2.17,7.39,2.17,11.32-.02,41.95.04,83.9-.1,125.85-.01,3.94,1.04,6.45,4.21,8.96,25.99,20.57,51.84,41.32,77.68,62.08,7.15,5.75,9.26,13.51,6.09,21.25-4.61,11.24-17.99,14.62-27.98,6.81-12.93-10.11-25.67-20.46-38.49-30.71-15.86-12.69-31.61-25.52-47.64-38-6.59-5.13-9.55-11.22-9.42-19.64.33-22.6.11-45.2.11-67.8h.02Z"/>
</svg>