<?xml version="1.0" standalone="no"?>
<!DOCTYPE svg PUBLIC "-//W3C//DTD SVG 20010904//EN"
 "http://www.w3.org/TR/2001/REC-SVG-20010904/DTD/svg10.dtd">
<svg version="1.0" xmlns="http://www.w3.org/2000/svg"
 width="1920.000000pt" height="1921.000000pt" viewBox="0 0 1920.000000 1921.000000"
 preserveAspectRatio="xMidYMid meet">

<g transform="translate(0.000000,1921.000000) scale(0.100000,-0.100000)"
fill="currentColor" stroke="none">
<path d="M9385 19203 c-2692 -65 -5202 -1231 -6982 -3243 -1430 -1618 -2264
-3641 -2393 -5805 -13 -219 -13 -881 0 -1100 169 -2843 1554 -5419 3835 -7133
1956 -1469 4391 -2131 6835 -1856 1490 167 2933 690 4190 1519 1077 710 2012
1642 2724 2715 881 1328 1416 2841 1560 4420 53 569 53 1201 0 1770 -132 1442
-579 2804 -1331 4059 -727 1211 -1739 2269 -2923 3055 -1328 881 -2838 1415
-4420 1560 -311 29 -800 47 -1095 39z m640 -983 c1599 -84 3087 -581 4400
-1468 787 -532 1498 -1208 2068 -1967 1287 -1714 1883 -3817 1692 -5965 -146
-1634 -764 -3200 -1781 -4510 -105 -135 -253 -314 -264 -318 -4 -2 -34 75 -65
170 -559 1682 -1763 3090 -3347 3912 -286 148 -623 293 -930 397 -71 24 -128
47 -128 50 0 3 30 27 67 54 343 252 689 635 917 1015 265 440 421 889 493
1415 25 185 25 685 0 870 -115 842 -491 1585 -1089 2154 -1090 1037 -2709
1281 -4054 612 -881 -439 -1554 -1236 -1833 -2171 -114 -379 -158 -716 -148
-1120 10 -413 74 -753 212 -1135 232 -640 683 -1247 1218 -1639 37 -28 67 -52
67 -55 0 -4 -60 -26 -132 -51 -279 -94 -658 -256 -933 -399 -918 -478 -1725
-1165 -2340 -1991 -442 -593 -768 -1221 -1004 -1933 -29 -87 -57 -157 -61
-155 -26 9 -303 362 -485 616 -834 1165 -1360 2526 -1534 3972 -46 372 -55
556 -55 1025 0 481 10 658 59 1063 233 1905 1097 3673 2460 5037 586 585 1239
1074 1970 1475 1109 609 2387 971 3665 1039 226 12 676 12 895 1z m-194 -4190
c224 -23 469 -77 655 -145 122 -45 393 -177 494 -241 554 -352 953 -890 1125
-1519 166 -608 104 -1263 -175 -1830 -43 -88 -100 -194 -126 -235 -365 -574
-926 -982 -1569 -1143 -245 -61 -337 -72 -640 -72 -303 0 -395 11 -640 72
-186 47 -329 99 -510 188 -518 254 -926 662 -1181 1180 -318 646 -357 1387
-109 2061 92 250 272 561 443 764 163 194 392 394 612 534 101 64 372 196 494
241 179 66 433 123 641 144 118 12 368 12 486 1z m124 -6180 c693 -46 1344
-201 1960 -468 1705 -737 2962 -2240 3377 -4037 l41 -179 -49 -44 c-100 -91
-304 -257 -474 -386 -1169 -887 -2536 -1461 -3966 -1665 -472 -68 -733 -86
-1259 -85 -458 0 -650 10 -1015 55 -1372 165 -2643 636 -3783 1402 -282 189
-679 493 -871 669 l-59 54 41 179 c415 1797 1673 3300 3377 4037 607 263 1272
423 1940 467 176 12 568 12 740 1z"/>
</g>
</svg>
