<?xml version="1.0" encoding="UTF-8"?>
<svg id="Layer_1" data-name="Layer 1" xmlns="http://www.w3.org/2000/svg" version="1.1" viewBox="0 0 500 500">
  <defs>
    <style>
      .cls-1 {
        fill: #000;
      }

      .cls-1, .cls-2 {
        stroke-width: 0px;
      }

      .cls-2 {
        fill: #c14949;
      }
    </style>
  </defs>
  <path class="cls-1" d="M471.57,81.34c-11.6-15.7-25.9-28.47-43.33-37.75-19.66-10.47-40.55-15.49-62.64-15.32-25.38.2-48.49,7.82-69.14,22.72-17.23,12.43-30.88,28.13-42.02,46.14-.77,1.24-1.55,2.48-2.23,3.78-.79,1.52-1.5,2.2-2.22,2.19-.71,0-1.42-.66-2.22-2.19-.67-1.3-1.45-2.54-2.23-3.78-11.14-18.01-24.79-33.7-42.02-46.14-20.65-14.9-43.77-22.53-69.14-22.72-22.09-.17-42.98,4.85-62.64,15.32-17.42,9.28-31.73,22.05-43.33,37.75C3.67,114.88-2.96,153.11,1.12,193.69c2.96,29.42,15.45,55.23,32.08,79.11,17.05,24.47,37.4,46.04,59.08,66.49,14.77,13.93,29.83,27.51,45.16,40.76,33.53,28.97,67.01,57.99,100.77,86.68,3.87,3.29,7.83,4.99,11.79,5.02,3.96-.03,7.93-1.73,11.79-5.02,33.76-28.7,67.24-57.71,100.77-86.68,15.33-13.24,30.39-26.83,45.16-40.76,21.68-20.45,42.03-42.02,59.08-66.49,16.63-23.87,29.13-49.69,32.08-79.11,4.08-40.58-2.55-78.81-27.31-112.35Z"/>
  <path class="cls-2" d="M-1377.37,185.02v-7.99c.95.4,1,1.18.84,2.04v3.99c.13.83.44,1.73-.84,1.96Z"/>
  <path class="cls-2" d="M-1377.37,165.03v-4c1.1.3.95,1.14.84,1.96.17.86.12,1.64-.84,2.04Z"/>
</svg>