<?xml version="1.0" encoding="UTF-8"?>
<svg id="Layer_1" data-name="Layer 1" xmlns="http://www.w3.org/2000/svg" version="1.1" viewBox="0 0 500 500">
  <defs>
    <style>
      .cls-1 {
        fill: #7b7b7b;
      }

      .cls-1, .cls-2, .cls-3, .cls-4 {
        stroke-width: 0px;
      }

      .cls-2 {
        fill: #555;
      }

      .cls-3 {
        fill: #000;
      }

      .cls-4 {
        fill: #fefefe;
      }
    </style>
  </defs>
  <path class="cls-1" d="M238.52.5s-.02.05-.04.08c-.13.16-.24.24-.37.24-.66.08-1.34.24-1.7-.34.19,0,.37-.03.57-.04.39-.03.78-.05,1.18-.08.12,0,.23,0,.35-.02.03.06.03.11,0,.16Z"/>
  <path class="cls-2" d="M239.99.26c-.43.68-1.11.72-1.88.57.02-.11.03-.22.04-.32,0-.05,0-.09,0-.14.12,0,.23,0,.35-.02.42-.03.85-.05,1.28-.07t0,0c.06,0,.12,0,.19,0Z"/>
  <path class="cls-2" d="M250.86.83c-.85.16-1.6.08-2.01-.83h1.95c.3.16.41.34.33.53-.08.2-.17.3-.27.3Z"/>
  <path class="cls-1" d="M250.98,0h0s0,.07-.03.1c-.12.52-.37.73-.69.8h-.02c-.34.07-.75-.02-1.15-.07-.02-.17-.04-.33-.04-.5-.02-.11-.02-.23-.02-.33h1.95Z"/>
  <path class="cls-3" d="M269.5,1.02c-2.22-.23-4.45-.42-6.7-.58-.93-.06-1.87-.12-2.81-.17-1-.06-1.99-.1-2.98-.14-2.02-.08-4.02-.12-6.03-.13h0s-1.13,0-1.13,0h-1c-2.97.02-5.93.11-8.87.25-.07,0-.13,0-.19,0t0,0c-.43.02-.86.04-1.28.07-.12,0-.23,0-.35.02-.4.03-.79.05-1.18.08-.2,0-.38.03-.57.04-1.95.14-3.89.31-5.82.52-.68.06-1.37.14-2.06.22-.18,0-.34,0-.51.03-.91.12-1.82.24-2.73.37-.07,0-.14.02-.21.03C144.18,12.44,78.4,75.46,64.92,158.22c-.18,1.01-.33,2.04-.48,3.05,0,.1-.03.19-.04.28-.3,2.06-.58,4.14-.81,6.22,0,.03,0,.06,0,.09-.14,1.16-.25,2.33-.36,3.5-.1,1.02-.19,2.05-.26,3.06-.03.37-.06.73-.08,1.11-.08.99-.14,1.98-.2,2.96-.04.77-.08,1.56-.12,2.33-.02.36-.03.72-.04,1.09-.05,1.08-.08,2.15-.1,3.23-.02.35-.02.7-.02,1.06-.02.95-.03,1.9-.03,2.85,0,.84,0,1.68,0,2.52,0,.75.03,1.52.05,2.27.02.75.04,1.52.07,2.27.28,8.27,1.12,16.59,2.51,24.93,6.22,37.48,19.94,72.12,38.19,105.11,34.95,63.2,80.98,117.64,133.35,166.98,9.71,9.14,16.97,9.12,26.68.07,38.66-36.07,73.45-75.54,103.6-118.99,25.74-37.1,47.45-76.33,60.4-119.88,6.56-22.06,10.49-44.29,10.41-66.56.29-95.46-71.81-176.83-168.13-186.76Z"/>
  <path class="cls-4" d="M246.49,291.55c-58.37-3.1-103.12-51.3-100.58-107.81,2.61-58.19,51.05-102.5,107.98-100.35,58.23,2.2,102.45,51.07,100.23,107.99-2.25,57.67-50.48,101.96-107.62,100.17Z"/>
</svg>